<svg id="Layer_1" data-name="Layer 1" xmlns="http://www.w3.org/2000/svg" viewBox="0 0 116.93 122.88"><defs><style>.cls-1{fill:darkslategrey;fill-rule:evenodd;}</style></defs><title>playing-card-spade-shape</title><path class="cls-1" d="M62.61,91.7a35.65,35.65,0,0,0,5.2,5.22c17.88,14.5,43.85,5.1,48.52-17.79a26.74,26.74,0,0,0-.27-12.43c-2.17-7.89-9.4-15.88-17.15-23.19-3.71-3.5-7.27-6.76-10.77-10C77.7,23.73,66.06,12.12,58.47,0h0C50.87,12.12,39.23,23.73,28.79,33.48c-3.5,3.27-7.06,6.53-10.77,10C10.27,50.82,3,58.81.87,66.7A26.74,26.74,0,0,0,.6,79.13C5.27,102,31.24,111.42,49.12,96.92A35.68,35.68,0,0,0,54.88,91c-5.41,12.62-13,21.27-23.79,25.27v6.62h55v-6.62C75.47,112.33,68,103.93,62.61,91.7Z"/></svg>
