
<svg xmlns="http://www.w3.org/2000/svg" width="363.2" height="346" viewBox="166.1 30.1 363.2 346"><path fill="#555555" d="M232.8 178.5c7.7 6.4 20.1 8 29.2 4.7 9.1-3.3 12.1-9.2 13.4-11.1-1.8 13.9-9.1 36.3-9.1 36.3h25.4s-7.2-22.4-9.1-36.3c1.3 2 4.3 7.8 13.4 11.1 9.1 3.3 21.5 1.7 29.2-4.7 9.1-8 11.1-19.8 9.4-31.4-5.7-26.8-36.9-28.8-50.1-51.2-2.3-3.5-4.2-7.2-5.4-11.2h-.1c-1.2 4-3.2 7.7-5.4 11.2-13.2 22.4-44.3 24.4-50.1 51.2-1.8 11.6.3 23.4 9.3 31.4zm195.5 36.4c-4.3-4.8-9.9-7.9-15.9-8-6.1.1-11.7 3.2-16 8-4.6 6.3-7.2 14.8-4.5 22.8 6.5 18 12.1 16.1 14.3 33.3-13.9-4.8-15-16.6-27.5-18.8-9.8-2.1-19.5 1.6-25.3 9.9-3.9 6.6-4.7 16.3-.7 23.2 4.3 7.6 12 11.4 20.4 11.6 17.7-1.1 17.6-12.1 33.5-13.1h.4c-1.8 18.2-8.1 40.5-8.1 40.5H426s-6.3-22.2-8.1-40.5h.4c15.8 1.1 15.7 12.1 33.2 13.1 8.3-.2 15.9-4 20.2-11.6 3.9-6.9 3.2-16.6-.7-23.2-5.7-8.2-15.3-11.9-25-9.9-12.4 2.2-13.6 14-27.3 18.8 2.3-17.2 7.7-15.3 14.2-33.3 2.6-8 0-16.5-4.6-22.8zM291.8 324.1L433.1 84.9l-29.8-.1L261.2 324l30.6.1zm-125.7-294v346h363.2v-346H166.1zm333.7 316.1H197.1V61.1h302.7v285.1z"/></svg>
